<svg width="37" height="33" viewBox="0 0 37 33" fill="none" xmlns="http://www.w3.org/2000/svg">
<path d="M22.3819 7.51651C21.9678 7.91746 21.4685 8.39932 20.9838 8.86435L19.3266 10.4316C19.2768 10.4771 19.2162 10.5349 19.1455 10.6025C18.6454 11.08 17.6376 12.0424 16.312 12.5538C15.5352 12.8536 14.6305 13.01 13.6324 12.8406C12.3165 12.8406 11.0197 11.8003 10.5358 11.2801C10.3788 11.1461 10.284 10.9533 10.2737 10.7472C10.2634 10.541 10.3385 10.3398 10.4813 10.1908C11.7786 8.83726 14.9346 5.5557 17.7323 2.67991C15.8514 1.12332 13.6939 0.184559 11.4413 0.0245298C8.96143 -0.151646 6.29963 0.610858 3.6849 2.64594C1.52039 4.33061 0.675932 6.96406 0.666102 9.58893C0.656193 12.235 1.49697 14.6922 2.47803 15.8951C3.05952 16.6081 3.9523 17.582 4.83325 18.4922C4.89892 18.4141 4.96893 18.3384 5.0433 18.2654L7.61153 15.7465C8.86405 14.518 10.8753 14.5375 12.1038 15.79C12.765 16.4641 13.0647 17.3579 13.0052 18.2312C13.9325 18.1371 14.8926 18.45 15.596 19.1672C16.3108 19.896 16.6031 20.8816 16.4759 21.8205C17.3431 21.7843 18.2216 22.1015 18.8773 22.77C19.5943 23.2776 19.7736 24.6522 19.7736 25.2761C20.6211 25.213 21.4897 25.5098 22.1314 26.164C22.4146 26.4528 22.6273 26.7843 22.7698 27.1374C22.8502 27.1738 22.9255 27.2251 22.9916 27.2914C23.495 27.7964 23.9982 27.9396 24.4286 27.909C24.8784 27.877 25.3268 27.6486 25.6739 27.2765C26.0208 26.9045 26.1873 26.5824 26.1665 26.164C26.1418 25.6671 25.9453 25.272 25.4673 24.8006C25.4507 24.7842 25.4336 24.7673 25.416 24.75C24.894 24.2342 18.762 18.0166 18.762 18.0166C18.4696 17.7232 18.4703 17.2484 18.7637 16.9559C19.057 16.6635 19.5319 16.6643 19.8243 16.9576C20.949 18.0859 22.6472 19.4636 24.7258 21.524C26.216 23.0012 26.3024 23.0814 26.4133 23.1844C26.4571 23.2251 26.5047 23.2693 26.6441 23.4045C27.1365 23.8819 27.6268 24.0364 28.0367 24.0279C28.4576 24.0192 28.853 23.8377 29.1446 23.5415C29.4356 23.246 29.6096 22.8506 29.607 22.4259C29.6045 22.0105 29.4398 21.5013 28.9093 20.9768C28.6321 20.7027 26.8006 18.8866 25.0729 17.1734C23.4944 15.6082 22.3224 14.6402 22.1816 14.5012C21.8869 14.2102 21.8838 13.7353 22.1748 13.4406C22.2558 13.3586 22.3513 13.299 22.4529 13.2622C22.7164 13.1669 23.0228 13.2238 23.2355 13.4338L23.318 13.5119C23.9465 14.1322 24.9284 14.9249 25.8639 15.8645C27.6246 17.6329 29.5144 19.531 29.9717 19.9178C30.6719 20.5102 30.9767 20.5758 31.3806 20.5553C31.8005 20.534 32.2085 20.3287 32.5177 19.992C32.8273 19.6549 33.0089 19.2168 33.0072 18.7767C33.0055 18.3529 32.8342 17.8736 32.3384 17.4243C30.0316 15.3336 27.8414 13.0857 25.6566 10.8433C24.5682 9.72625 23.4812 8.61062 22.3819 7.51651Z" fill="black"/>
<path d="M12.1469 10.6244C14.5343 8.13792 16.9278 5.65717 19.3336 3.18851C20.6966 2.06301 23.1204 1.04173 25.7609 0.825094C28.4051 0.608144 31.1575 1.20473 33.2412 3.18101C35.35 5.18115 36.1493 7.7289 36.2963 10.0193C36.4453 12.3411 35.9177 14.2864 35.5115 14.9994C35.0422 15.8234 34.4988 16.5147 34.1051 16.9771L33.3571 16.3206L22.9205 5.93371C22.6303 5.64496 22.1623 5.64217 21.8687 5.92746C21.5275 6.25903 21.0307 6.74024 20.5076 7.2442C19.6686 8.05239 18.7616 8.91948 18.3186 9.32347C18.2484 9.38748 18.1718 9.45989 18.0888 9.53836C17.5681 10.0304 16.795 10.7609 15.7748 11.1546C15.2035 11.375 14.5733 11.4786 13.8862 11.3619C13.3665 11.2737 12.7845 11.0545 12.1469 10.6244Z" fill="black"/>
<path d="M6.07341 21.7076C5.425 21.0465 5.43528 19.9849 6.09638 19.3365L8.66461 16.8175C9.3257 16.1691 10.3873 16.1794 11.0357 16.8405C11.6841 17.5016 11.6738 18.5632 11.0127 19.2116L8.44449 21.7305C7.78339 22.3789 6.72182 22.3687 6.07341 21.7076Z" fill="black"/>
<path d="M9.5656 25.0848C8.91719 24.4237 8.92747 23.3621 9.58857 22.7137L12.1568 20.1947C12.8179 19.5463 13.8795 19.5566 14.5279 20.2177C15.1763 20.8788 15.166 21.9404 14.5049 22.5888L11.9367 25.1077C11.2756 25.7561 10.214 25.7459 9.5656 25.0848Z" fill="black"/>
<path d="M12.8468 28.6875C12.1984 28.0265 12.2087 26.9649 12.8698 26.3165L15.438 23.7975C16.0991 23.1491 17.1607 23.1594 17.8091 23.8205C18.4575 24.4816 18.4473 25.5432 17.7862 26.1916L15.2179 28.7105C14.5568 29.3589 13.4953 29.3486 12.8468 28.6875Z" fill="black"/>
<path d="M16.5656 31.6259C15.9895 31.0385 15.9986 30.0952 16.586 29.5191L18.9565 27.1941C19.5439 26.618 20.4871 26.6271 21.0633 27.2146C21.6394 27.802 21.6303 28.7452 21.0428 29.3214L18.7261 31.5936C18.4412 31.7767 18.1693 31.931 17.9209 32.0438C17.4445 32.1385 16.9311 31.9986 16.5656 31.6259Z" fill="black"/>
</svg>
