<svg width="30" height="31" viewBox="0 0 30 31" fill="none" xmlns="http://www.w3.org/2000/svg">
<path fill-rule="evenodd" clip-rule="evenodd" d="M16.5 8.81645C18.2478 8.1987 19.5 6.53184 19.5 4.57251C19.5 2.08723 17.4853 0.0725098 15 0.0725098C12.5147 0.0725098 10.5 2.08723 10.5 4.57251C10.5 6.53184 11.7522 8.1987 13.5 8.81645V16.5725C13.5 17.4009 14.1716 18.0725 15 18.0725C15.8284 18.0725 16.5 17.4009 16.5 16.5725V8.81645ZM13.5 4.57251C13.5 3.74408 14.1716 3.07251 15 3.07251C15.8284 3.07251 16.5 3.74408 16.5 4.57251C16.5 5.40094 15.8284 6.07251 15 6.07251C14.1716 6.07251 13.5 5.40094 13.5 4.57251Z" fill="black"/>
<path fill-rule="evenodd" clip-rule="evenodd" d="M6.36891 12.0725C5.1714 12.0725 4.08859 12.7847 3.61427 13.8842L0.245366 21.694C0.0834963 22.0692 0 22.4736 0 22.8822V27.0725C0 28.7294 1.34315 30.0725 3 30.0725H27C28.6569 30.0725 30 28.7294 30 27.0725V22.8822C30 22.4736 29.9165 22.0692 29.7546 21.694L26.3857 13.8842C25.9114 12.7847 24.8286 12.0725 23.6311 12.0725H21.3088C20.4804 12.0725 19.8088 12.7441 19.8088 13.5725C19.8088 14.4009 20.4804 15.0725 21.3088 15.0725H23.6311L26.2193 21.0725L3.78067 21.0725L6.3689 15.0725H8.69118C9.5196 15.0725 10.1912 14.4009 10.1912 13.5725C10.1912 12.7441 9.5196 12.0725 8.69118 12.0725H6.36891ZM3 24.0725V27.0725H27V24.0725H3Z" fill="black"/>
</svg>
