<svg width="30" height="30" viewBox="0 0 30 30" fill="none" xmlns="http://www.w3.org/2000/svg">
<path d="M16.1555 24.2181C16.1555 23.2966 16.8443 22.5495 17.6938 22.5495H28.4617C29.3113 22.5495 30 23.2966 30 24.2181C30 25.1397 29.3113 25.8867 28.4617 25.8867H17.6938C16.8443 25.8867 16.1555 25.1397 16.1555 24.2181Z" fill="black"/>
<path d="M17.6938 4.58709C16.8443 4.58709 16.1555 5.33416 16.1555 6.2557C16.1555 7.17725 16.8443 7.92431 17.6938 7.92431H28.4617C29.3113 7.92431 30 7.17725 30 6.2557C30 5.33416 29.3113 4.58709 28.4617 4.58709H17.6938Z" fill="black"/>
<path fill-rule="evenodd" clip-rule="evenodd" d="M3.04445 0C1.36305 0 0 1.47748 0 3.30005V9.21155C0 11.0341 1.36305 12.5116 3.04445 12.5116H8.4926C10.174 12.5116 11.537 11.0341 11.537 9.21155V3.30005C11.537 1.47748 10.174 0 8.4926 0H3.04445ZM3.04445 3.30005H8.4926V9.21155H3.04445V3.30005Z" fill="black"/>
<path d="M8.40236 18.8081C9.00825 18.1484 9.99059 18.1484 10.5965 18.8081C11.2024 19.4679 11.2024 20.5376 10.5965 21.1974L7.92547 24.106L10.6906 27.1159C11.2964 27.7757 11.2964 28.8454 10.6906 29.5052C10.0847 30.1649 9.10233 30.1649 8.49644 29.5052L5.73135 26.4953L3.02558 29.442C2.4197 30.1017 1.43736 30.1017 0.831473 29.442C0.225585 28.7822 0.225585 27.7125 0.831473 27.0527L3.53724 24.106L0.925426 21.2608C0.319539 20.601 0.319539 19.5313 0.925426 18.8715C1.53131 18.2117 2.51365 18.2117 3.11954 18.8715L5.73135 21.7168L8.40236 18.8081Z" fill="black"/>
</svg>
