<svg width="28" height="32" viewBox="0 0 28 32" fill="none" xmlns="http://www.w3.org/2000/svg">
<path fill-rule="evenodd" clip-rule="evenodd" d="M13.339 6.26767L5.07877 16.8224H12.9127C13.9902 16.8224 14.8263 17.7627 14.7004 18.8328L13.858 25.9932L22.8995 14.5724H14.3399C13.2572 14.5724 12.4196 13.6235 12.5538 12.5492L13.339 6.26767ZM13.6504 1.00214C14.7759 -0.436063 17.0805 0.522553 16.854 2.33476L15.6993 11.5724H25.38C26.885 11.5724 27.7254 13.3097 26.7913 14.4897L13.583 31.1739C12.4569 32.5962 10.1721 31.648 10.384 29.8463L11.5633 19.8224H2.61584C1.11548 19.8224 0.273639 18.0947 1.19833 16.9131L13.6504 1.00214Z" fill="black"/>
</svg>
